<mxfile host="app.diagrams.net" modified="2024-07-15T07:42:50.496Z" agent="Mozilla/5.0 (Windows NT 10.0; Win64; x64) AppleWebKit/537.36 (KHTML, like Gecko) Chrome/126.0.0.0 Safari/537.36" version="24.6.5" etag="mHVBjmPSzZd9r6uw_NUH" type="github">
  <diagram name="Page-1" id="KRfb1d3VFqV9XLphpg5Y">
    <mxGraphModel>
      <root>
        <mxCell id="0" />
        <mxCell id="1" parent="0" />
      </root>
    </mxGraphModel>
  </diagram>
</mxfile>
